<svg width="25" height="26" viewBox="0 0 25 26" fill="none" xmlns="http://www.w3.org/2000/svg">
<path d="M8.37679 23.6676V19.7988C8.37679 18.8232 9.18419 18.0158 10.1598 18.0158H13.7931C14.2641 18.0158 14.7351 18.2177 15.0715 18.5541C15.4079 18.8905 15.6098 19.3279 15.6098 19.8325V23.7013C15.6098 24.105 15.778 24.5087 16.0471 24.8115C16.3499 25.1142 16.7199 25.2824 17.1573 25.2824H19.6468C20.7906 25.2824 21.9008 24.8451 22.7418 24.0041C23.5492 23.1967 24.0202 22.0865 24.0202 20.9427V9.94182C24.0202 8.99986 23.6165 8.12517 22.8764 7.55326L14.4323 0.858564C12.9521 -0.318895 10.8663 -0.285254 9.45332 0.95949L1.2111 7.55326C0.470984 8.12517 0 8.99986 0 9.94182V20.9427C0 23.3312 1.95122 25.2824 4.37342 25.2824H6.79563C7.63667 25.2824 8.34315 24.6096 8.34315 23.7349H8.37679V23.6676Z" fill="url(#paint0_linear_33815_1850)"/>
<defs>
<linearGradient id="paint0_linear_33815_1850" x1="12.0101" y1="0" x2="12.0101" y2="25.2824" gradientUnits="userSpaceOnUse">
<stop stop-color="#9DBE16"/>
<stop offset="1" stop-color="#539401"/>
</linearGradient>
</defs>
</svg>
