<svg width="26" height="26" viewBox="0 0 26 26" fill="none" xmlns="http://www.w3.org/2000/svg">
<path fill-rule="evenodd" clip-rule="evenodd" d="M0.0673967 12.6706C0.0673967 5.99832 5.39174 0 12.738 0C19.9158 0 25.3412 5.89722 25.3412 12.6369C25.3412 20.4549 18.9722 25.3075 12.7043 25.3075C10.615 25.3075 8.3235 24.7346 6.47009 23.6563C5.82982 23.2519 5.29065 22.9823 4.58298 23.1845L2.0219 23.9596C1.38163 24.1618 0.808761 23.6563 0.977253 22.9823L1.81971 20.1516C1.95451 19.7473 1.92081 19.3429 1.71862 19.0059C0.64027 17.0177 0 14.8273 0 12.7043L0.0673967 12.6706ZM11.0531 12.6706C11.0531 13.5805 11.7607 14.2881 12.6706 14.2881C13.5805 14.2881 14.2881 13.5468 14.2881 12.6706C14.2881 11.7607 13.5805 11.0531 12.6706 11.0531C11.7944 11.0531 11.0531 11.7607 11.0531 12.6706ZM16.8829 12.6706C16.8829 13.5468 17.5906 14.2881 18.5004 14.2881C19.4103 14.2881 20.1179 13.5468 20.1179 12.6706C20.1179 11.7607 19.4103 11.0531 18.5004 11.0531C17.5906 11.0531 16.8829 11.7607 16.8829 12.6706ZM6.84078 14.2881C5.96462 14.2881 5.22325 13.5468 5.22325 12.6706C5.22325 11.7607 5.93092 11.0531 6.84078 11.0531C7.75063 11.0531 8.4583 11.7607 8.4583 12.6706C8.4583 13.5468 7.75063 14.2881 6.84078 14.2881Z" fill="#858BA6"/>
</svg>
