<svg width="28" height="22" viewBox="0 0 28 22" fill="none" xmlns="http://www.w3.org/2000/svg">
<path fill-rule="evenodd" clip-rule="evenodd" d="M7.17154 12.5858C7.17154 12.6181 7.17154 12.6181 7.13918 12.6505C6.36248 13.0388 3.41749 14.6893 3.77348 18.1845C3.77348 18.3463 3.67639 18.4757 3.51458 18.4434C2.77025 18.3463 0.925585 17.9256 0.34306 16.6634C0.0194357 15.9838 0.0194357 15.2071 0.34306 14.5599C0.73141 13.7508 1.63756 13.2007 3.02914 12.9094C3.67639 12.7476 5.45633 12.521 7.13918 12.5534C7.17154 12.5534 7.17154 12.5858 7.17154 12.5858Z" fill="url(#paint0_linear_3605_3211)"/>
<path fill-rule="evenodd" clip-rule="evenodd" d="M6.97739 10.8056C7.17156 10.8056 7.3981 10.7733 7.59227 10.7409C7.72172 10.7085 7.81881 10.5467 7.72172 10.4173C6.94502 9.25223 6.49195 7.82828 6.49195 6.30725C6.49195 4.72149 6.97739 3.26518 7.85117 2.0354C7.88354 2.00304 7.88354 1.93832 7.88354 1.90595C7.85117 1.87359 7.81881 1.84123 7.78645 1.84123C7.49519 1.7765 7.20392 1.74414 6.8803 1.74414C4.0324 1.74414 1.79939 4.43022 2.54373 7.43993C3.06153 9.47877 4.93855 10.8056 7.00975 10.7409L6.97739 10.8056Z" fill="url(#paint1_linear_3605_3211)"/>
<path fill-rule="evenodd" clip-rule="evenodd" d="M24.9708 12.9094C26.3623 13.1683 27.2685 13.7508 27.6568 14.5599C27.9805 15.2395 27.9805 16.0162 27.6568 16.6634C27.0743 17.9256 25.1973 18.3463 24.4853 18.4434C24.3235 18.4757 24.2264 18.3463 24.2264 18.1845C24.6148 14.6893 21.6374 13.0388 20.8607 12.6505C20.8284 12.6181 20.8284 12.6181 20.8284 12.5858C20.8284 12.5858 20.8284 12.5534 20.8607 12.5534C22.5112 12.521 24.2912 12.7476 24.9708 12.9094Z" fill="url(#paint2_linear_3605_3211)"/>
<path fill-rule="evenodd" clip-rule="evenodd" d="M21.5404 6.33969C21.5404 7.86072 21.0873 9.25231 20.3106 10.4497C20.2135 10.5792 20.3106 10.741 20.44 10.7733C20.6342 10.8057 20.8284 10.8381 21.0549 10.8381C23.1261 10.9028 25.0031 9.54357 25.5209 7.5371C26.2976 4.52739 24.0323 1.84131 21.1844 1.84131C20.8607 1.84131 20.5695 1.87367 20.2782 1.9384C20.2459 1.9384 20.1811 1.97076 20.1811 2.00312C20.1488 2.03548 20.1811 2.10021 20.2135 2.13257C21.0549 3.32998 21.5727 4.81866 21.5727 6.40442L21.5404 6.33969Z" fill="url(#paint3_linear_3605_3211)"/>
<path fill-rule="evenodd" clip-rule="evenodd" d="M13.9353 21.1295C9.59874 21.1295 5.90942 20.4499 5.90942 17.6991C5.90942 14.9483 9.59874 14.2363 13.9353 14.2363C18.2719 14.2363 21.9612 14.9159 21.9612 17.6667C21.9612 20.4176 18.2719 21.1295 13.9353 21.1295Z" fill="url(#paint4_linear_3605_3211)"/>
<path fill-rule="evenodd" clip-rule="evenodd" d="M19.275 6.24264C19.275 9.21998 16.9126 11.5824 13.9676 11.5824C11.0226 11.5824 8.66016 9.18762 8.66016 6.24264C8.66016 3.26529 11.0226 0.902832 13.9676 0.902832C16.9126 0.902832 19.275 3.29765 19.275 6.24264Z" fill="url(#paint5_linear_3605_3211)"/>
<path fill-rule="evenodd" clip-rule="evenodd" d="M0.34306 14.56C0.0194356 15.2396 0.0194356 16.0163 0.34306 16.6636C0.925585 17.9257 2.80261 18.3464 3.51458 18.4435C3.67639 18.4758 3.77348 18.3464 3.77348 18.1846C3.57931 16.2752 4.35601 14.916 5.22979 14.0098C4.84144 13.6215 4.48546 13.1684 4.16183 12.7153C3.67639 12.7801 3.25568 12.8448 3.02914 12.9095C1.63756 13.2008 0.73141 13.7509 0.34306 14.56Z" fill="black" fill-opacity="0.1"/>
<path fill-rule="evenodd" clip-rule="evenodd" d="M7.00975 15.563C6.29777 16.0808 5.90942 16.7604 5.90942 17.6665C5.90942 20.4174 9.59874 21.097 13.9353 21.097C18.2072 21.097 21.8318 20.4174 21.9612 17.796C17.2039 18.9934 11.2169 18.6051 6.97739 15.563H7.00975Z" fill="black" fill-opacity="0.1"/>
<path fill-rule="evenodd" clip-rule="evenodd" d="M24.2267 17.0839C24.259 17.4399 24.259 17.7959 24.2267 18.1843C24.2267 18.3461 24.3238 18.4755 24.4856 18.4432C25.2299 18.3461 27.0746 17.9254 27.6571 16.6632C27.916 16.1131 27.9807 15.4658 27.7866 14.8833C26.8804 15.7571 25.6506 16.4691 24.2267 17.0516V17.0839Z" fill="black" fill-opacity="0.1"/>
<defs>
<linearGradient id="paint0_linear_3605_3211" x1="-0.465354" y1="11.8442" x2="2.16765" y2="21.8132" gradientUnits="userSpaceOnUse">
<stop stop-color="#3528A1"/>
<stop offset="1" stop-color="#A12AA3"/>
</linearGradient>
<linearGradient id="paint1_linear_3605_3211" x1="1.96042" y1="0.659314" x2="8.69031" y2="13.5226" gradientUnits="userSpaceOnUse">
<stop stop-color="#3528A1"/>
<stop offset="1" stop-color="#A12AA3"/>
</linearGradient>
<linearGradient id="paint2_linear_3605_3211" x1="20.2627" y1="11.8442" x2="22.8957" y2="21.8132" gradientUnits="userSpaceOnUse">
<stop stop-color="#3528A1"/>
<stop offset="1" stop-color="#A12AA3"/>
</linearGradient>
<linearGradient id="paint3_linear_3605_3211" x1="19.7271" y1="0.763966" x2="26.368" y2="13.5993" gradientUnits="userSpaceOnUse">
<stop stop-color="#3528A1"/>
<stop offset="1" stop-color="#A12AA3"/>
</linearGradient>
<linearGradient id="paint4_linear_3605_3211" x1="4.62528" y1="13.4111" x2="6.28936" y2="25.6486" gradientUnits="userSpaceOnUse">
<stop stop-color="#3528A1"/>
<stop offset="1" stop-color="#A12AA3"/>
</linearGradient>
<linearGradient id="paint5_linear_3605_3211" x1="7.81097" y1="-0.375713" x2="13.396" y2="17.1551" gradientUnits="userSpaceOnUse">
<stop stop-color="#3528A1"/>
<stop offset="1" stop-color="#A12AA3"/>
</linearGradient>
</defs>
</svg>
