<svg width="24" height="26" viewBox="0 0 24 26" fill="none" xmlns="http://www.w3.org/2000/svg">
<path fill-rule="evenodd" clip-rule="evenodd" d="M7.69518 12.3909C7.05042 12.3909 6.52661 11.8671 6.52661 11.2223C6.52661 10.5795 7.05042 10.0557 7.69518 10.0557C8.33994 10.0557 8.86375 10.5795 8.86375 11.2223C8.86375 11.8671 8.33994 12.3909 7.69518 12.3909ZM12.238 12.3909C11.5933 12.3909 11.0695 11.8671 11.0695 11.2223C11.0695 10.5795 11.5933 10.0557 12.238 10.0557C12.8828 10.0557 13.4066 10.5795 13.4066 11.2223C13.4066 11.8671 12.8828 12.3909 12.238 12.3909ZM15.6124 11.2223C15.6124 11.8671 16.1362 12.3909 16.781 12.3909C17.4258 12.3909 17.9496 11.8671 17.9496 11.2223C17.9496 10.5795 17.4258 10.0557 16.781 10.0557C16.1362 10.0557 15.6124 10.5795 15.6124 11.2223Z" fill="white"/>
<path fill-rule="evenodd" clip-rule="evenodd" d="M12.02 1C6.21 1 2 5.74612 2 11.015C2 12.6975 2.49 14.4291 3.35 16.0115C3.51 16.2729 3.53 16.6024 3.42 16.9139L2.75 19.1572C2.6 19.698 3.06 20.0976 3.57 19.9374L5.59 19.3375C6.14 19.1572 6.57 19.3866 7.08 19.698C8.54 20.5583 10.36 21 12 21C16.96 21 22 17.1642 22 10.985C22 5.65598 17.7 1 12.02 1Z" stroke="white" stroke-width="1.5" stroke-linecap="round" stroke-linejoin="round"/>
</svg>
