<svg width="30" height="26" viewBox="0 0 30 26" fill="none" xmlns="http://www.w3.org/2000/svg">
<path d="M4.85294 0C3.56586 0 2.3315 0.557561 1.42139 1.55003C0.511291 2.54249 0 3.88856 0 5.29212V15.8764C0 17.2799 0.511291 18.626 1.42139 19.6185C2.3315 20.6109 3.56586 21.1685 4.85294 21.1685H14.55C14.353 20.5455 14.2227 19.8997 14.1618 19.2441H4.85294C4.03389 19.2441 3.24839 18.8893 2.66923 18.2577C2.09007 17.6261 1.76471 16.7695 1.76471 15.8764V7.69763H17.9471C18.18 6.97983 18.54 6.32938 18.9953 5.77322H1.76471V5.29212C1.76471 3.43314 3.14824 1.92441 4.85294 1.92441H23.3824C25.0871 1.92441 26.4706 3.43314 26.4706 5.29212V5.31906C27.5541 6.37749 28.2353 7.91124 28.2353 9.62204V5.29212C28.2353 3.88856 27.724 2.54249 26.8139 1.55003C25.9038 0.557561 24.6694 0 23.3824 0H4.85294ZM19.4118 9.62204C19.4118 8.60127 19.7836 7.62231 20.4455 6.90052C21.1074 6.17872 22.0051 5.77322 22.9412 5.77322C23.8772 5.77322 24.775 6.17872 25.4368 6.90052C26.0987 7.62231 26.4706 8.60127 26.4706 9.62204C26.4706 10.6428 26.0987 11.6218 25.4368 12.3436C24.775 13.0654 23.8772 13.4709 22.9412 13.4709C22.0051 13.4709 21.1074 13.0654 20.4455 12.3436C19.7836 11.6218 19.4118 10.6428 19.4118 9.62204ZM18.5294 15.3953H27.3529C28.055 15.3953 28.7283 15.6994 29.2247 16.2407C29.7211 16.7821 30 17.5163 30 18.2819C30 20.4295 29.19 22.1499 27.8612 23.3142C26.5535 24.4592 24.7994 25.0173 22.9412 25.0173C21.0829 25.0173 19.3288 24.4592 18.0212 23.3142C16.6941 22.1499 15.8824 20.4295 15.8824 18.2819C15.8824 17.5163 16.1612 16.7821 16.6577 16.2407C17.1541 15.6994 17.8274 15.3953 18.5294 15.3953Z" fill="white"/>
</svg>
