<svg width="40" height="40" viewBox="0 0 40 40" fill="none" xmlns="http://www.w3.org/2000/svg">
<path d="M25.3245 7H13.9355C10.1051 7 7 10.1051 7 13.9355V25.3245C7 29.1549 10.1051 32.26 13.9355 32.26H25.3245C29.1549 32.26 32.26 29.1549 32.26 25.3245V13.9355C32.26 10.1051 29.1549 7 25.3245 7Z" fill="url(#paint0_linear_33749_552)"/>
<path fill-rule="evenodd" clip-rule="evenodd" d="M21.8235 19.9433L17.973 16.9279C17.7411 16.7423 17.4627 16.6727 17.1844 16.6959C16.906 16.7423 16.6509 16.8815 16.4885 17.1135L12.3829 22.4484L12.2901 22.5644C12.0582 23.0051 12.1741 23.585 12.5917 23.8866C12.7772 24.0025 12.986 24.0953 13.2411 24.0953C13.5659 24.1185 13.8674 23.933 14.053 23.6778L17.5323 19.2011L21.4756 22.1701L21.5916 22.2629C22.0323 22.4948 22.589 22.3789 22.9137 21.9613L26.9265 16.7887L26.8801 16.8119C27.1121 16.5104 27.1353 16.116 26.9961 15.7681C26.8338 15.4202 26.509 15.1882 26.1611 15.165C25.79 15.1186 25.4188 15.281 25.1869 15.6057L21.8235 19.9433Z" fill="white"/>
<path fill-rule="evenodd" clip-rule="evenodd" d="M31.5873 28.3163C20.3607 32.422 9.55152 28.5715 7 18.8525V25.3241C7 29.1514 10.1314 32.2596 13.9355 32.2596H25.3245C28.0616 32.2596 30.4507 30.6359 31.5873 28.3163Z" fill="black" fill-opacity="0.1"/>
<defs>
<linearGradient id="paint0_linear_33749_552" x1="19.63" y1="7" x2="19.63" y2="32.26" gradientUnits="userSpaceOnUse">
<stop stop-color="#9DBE16"/>
<stop offset="1" stop-color="#539401"/>
</linearGradient>
</defs>
</svg>
