<svg width="26" height="26" viewBox="0 0 26 26" fill="none" xmlns="http://www.w3.org/2000/svg">
<path d="M18.3245 0H6.93548C3.10512 0 0 3.10512 0 6.93548V18.3245C0 22.1549 3.10512 25.26 6.93548 25.26H18.3245C22.1549 25.26 25.26 22.1549 25.26 18.3245V6.93548C25.26 3.10512 22.1549 0 18.3245 0Z" fill="url(#paint0_linear_33815_700)"/>
<path fill-rule="evenodd" clip-rule="evenodd" d="M14.8235 12.9433L10.973 9.92789C10.7411 9.74232 10.4627 9.67274 10.1844 9.69593C9.90604 9.74232 9.65089 9.8815 9.48852 10.1135L5.3829 15.4484L5.29012 15.5644C5.05816 16.0051 5.17414 16.585 5.59166 16.8866C5.77723 17.0025 5.98599 17.0953 6.24114 17.0953C6.56588 17.1185 6.86742 16.933 7.05299 16.6778L10.5323 12.2011L14.4756 15.1701L14.5916 15.2629C15.0323 15.4948 15.589 15.3789 15.9137 14.9613L19.9265 9.78872L19.8801 9.81191C20.1121 9.51037 20.1353 9.11604 19.9961 8.76811C19.8338 8.42017 19.509 8.18822 19.1611 8.16502C18.79 8.11863 18.4188 8.281 18.1869 8.60574L14.8235 12.9433Z" fill="white"/>
<path fill-rule="evenodd" clip-rule="evenodd" d="M24.5873 21.3163C13.3607 25.422 2.55152 21.5715 0 11.8525V18.3241C0 22.1514 3.1314 25.2596 6.93548 25.2596H18.3245C21.0616 25.2596 23.4507 23.6359 24.5873 21.3163Z" fill="black" fill-opacity="0.1"/>
<defs>
<linearGradient id="paint0_linear_33815_700" x1="12.63" y1="0" x2="12.63" y2="25.26" gradientUnits="userSpaceOnUse">
<stop stop-color="#9DBE16"/>
<stop offset="1" stop-color="#539401"/>
</linearGradient>
</defs>
</svg>
